# Blender 5.0.1
# www.blender.org
mtllib Untitled.mtl
o 평면
v -0.500000 -0.500000 0.500000
v 0.500000 -0.500000 0.500000
v 0.500000 0.500000 0.500000
v -0.500000 0.500000 0.500000
v 0.000000 -0.500000 -0.500000
v 0.000000 0.500000 -0.500000
vn -0.0000 -1.0000 -0.0000
vn -0.0000 1.0000 -0.0000
vn -0.8944 -0.0000 -0.4472
vn 0.8944 -0.0000 -0.4472
vn -0.0000 -0.0000 1.0000
vt 0.000000 0.000000
s 0
f 2/1/1 1/1/1 5/1/1
f 3/1/2 6/1/2 4/1/2
f 5/1/3 1/1/3 4/1/3 6/1/3
f 2/1/4 5/1/4 6/1/4 3/1/4
f 1/1/5 2/1/5 3/1/5 4/1/5
l 2 4
l 2 6
l 4 5
